<svg width="29" height="30" viewBox="0 0 29 30" fill="none" xmlns="http://www.w3.org/2000/svg">
<path opacity="0.2" d="M14.5009 29.4233C22.201 29.4233 28.4432 22.9659 28.4432 15.0002C28.4432 7.03458 22.201 0.577148 14.5009 0.577148C6.80078 0.577148 0.558594 7.03458 0.558594 15.0002C0.558594 22.9659 6.80078 29.4233 14.5009 29.4233Z" stroke="#151B26"/>
<path d="M10.6998 9.81348C9.9637 9.81348 9.48242 10.3355 9.48242 11.0217C9.48242 11.6927 9.94936 12.2296 10.6715 12.2296H10.6855C11.436 12.2296 11.9031 11.6927 11.9031 11.0217C11.889 10.3355 11.436 9.81348 10.6998 9.81348Z" fill="#151B26"/>
<path d="M9.60962 13.1843H11.7615V20.1767H9.60962V13.1843Z" fill="#151B26"/>
<path d="M17.0444 13.0205C15.8835 13.0205 15.1051 14.1987 15.1051 14.1987V13.1846H12.9531V20.177H15.105V16.2722C15.105 16.0631 15.119 15.8544 15.1759 15.7049C15.3314 15.2875 15.6855 14.8551 16.28 14.8551C17.0586 14.8551 17.3701 15.4963 17.3701 16.4363V20.177H19.5218V16.1677C19.5218 14.0199 18.4601 13.0205 17.0444 13.0205Z" fill="#151B26"/>
</svg>
