<svg width="40" height="40" viewBox="0 0 40 40" fill="none" xmlns="http://www.w3.org/2000/svg">
<path d="M19.2751 30.31C18.4577 29.7565 16.1413 27.5153 14.0799 24.9231C12.457 22.8824 11.0874 19.9818 10.6558 17.9161L17.366 14.5668C18.9394 13.7815 19.5449 11.8906 18.709 10.3726L16.0257 5.4993C15.2888 4.16095 13.6551 3.5599 12.3302 4.3598C10.7592 5.30822 8.76234 6.87074 7.42989 9.20799C4.93613 13.5823 5.76858 20.7371 9.42488 26.5432C13.2287 32.5837 19.7323 36.3044 25.8004 35.9804C29.3427 35.7913 31.8227 34.1667 33.2736 32.847C34.2961 31.917 34.1883 30.4157 33.2684 29.389L29.5444 25.2329C28.3636 23.915 26.2945 23.8203 24.9922 25.0244L19.2751 30.31Z" fill="#185155"/>
<path d="M25.8004 35.9804C29.3427 35.7913 31.8227 34.1667 33.2736 32.847L31.4941 33.1889C30.6487 33.3514 29.7788 33.333 28.9811 33.009C26.8393 32.1388 22.2092 29.706 17.5792 23.6899C13.247 18.0608 11.6387 12.1904 11.0558 9.05806C10.7828 7.59135 11.3106 6.15201 12.0623 4.86334C12.163 4.69083 12.2546 4.52066 12.3302 4.3598C10.737 5.22479 8.76234 6.87074 7.42989 9.20799C4.93613 13.5823 5.76858 20.7371 9.42488 26.5432C13.2287 32.5837 19.7323 36.3044 25.8004 35.9804Z" fill="#8CCE56"/>
<mask id="mask0_1_659" style="mask-type:alpha" maskUnits="userSpaceOnUse" x="6" y="4" width="28" height="32">
<path d="M19.2751 30.31C18.4577 29.7565 16.1413 27.5153 14.0799 24.9231C12.457 22.8824 11.0874 19.9818 10.6558 17.9161L17.366 14.5668C18.9394 13.7815 19.5449 11.8906 18.709 10.3726L16.0257 5.4993C15.2888 4.16095 13.6551 3.5599 12.3302 4.3598C10.6558 5.37068 8.76234 6.87074 7.42989 9.20799C4.93613 13.5823 5.76858 20.7371 9.42488 26.5432C13.2287 32.5837 19.7323 36.3044 25.8004 35.9804C29.3427 35.7913 31.8227 34.1667 33.2736 32.847C34.2961 31.917 34.1883 30.4157 33.2684 29.389L29.5444 25.2329C28.3636 23.915 26.2945 23.8203 24.9922 25.0244L19.2751 30.31Z" fill="#185155"/>
</mask>
<g mask="url(#mask0_1_659)">
<path d="M25.8004 35.9804C29.3427 35.7913 31.8227 34.1667 33.2736 32.847L31.4941 33.1889C30.6487 33.3514 29.7788 33.333 28.9811 33.009C26.8393 32.1388 22.2092 29.706 17.5792 23.6899C13.247 18.0608 11.6387 12.1904 11.0558 9.05806C10.7828 7.59135 11.3106 6.15201 12.0623 4.86334C12.163 4.69083 12.2546 4.52066 12.3302 4.3598C10.737 5.22479 8.76234 6.87074 7.42989 9.20799C4.93613 13.5823 5.76858 20.7371 9.42488 26.5432C13.2287 32.5837 19.7323 36.3044 25.8004 35.9804Z" fill="#4EAC6A"/>
</g>
</svg>
