<svg width="30" height="30" viewBox="0 0 30 30" fill="none" xmlns="http://www.w3.org/2000/svg">
<path opacity="0.2" d="M14.9993 29.4233C22.9649 29.4233 29.4223 22.9659 29.4223 15.0002C29.4223 7.03458 22.9649 0.577148 14.9993 0.577148C7.0336 0.577148 0.576172 7.03458 0.576172 15.0002C0.576172 22.9659 7.0336 29.4233 14.9993 29.4233Z" stroke="#151B26"/>
<path d="M15.3244 18.256C15.3475 17.6872 14.5534 17.4065 14.2106 17.8474C13.4713 18.7401 12.0834 20.3618 12.0036 20.5616C11.7923 21.1705 12.7831 21.5591 13.4116 21.7941C14.0942 22.0499 14.5802 22.154 14.8683 22.1047C15.0765 22.0615 15.2105 21.9537 15.2763 21.7801C15.3305 21.6309 15.325 18.3893 15.3244 18.256Z" fill="#151B26"/>
<path d="M14.9963 7.89093C14.9476 7.70215 14.8167 7.58035 14.6023 7.52554C13.9708 7.3599 11.5782 8.03586 11.1324 8.51452C10.9899 8.65945 10.9387 8.82814 10.9814 9.01875L14.0171 13.8905C14.637 14.882 15.4165 14.5842 15.3654 13.4758H15.3648C15.3246 12.7457 15.0335 8.13208 14.9963 7.89093Z" fill="#151B26"/>
<path d="M13.7117 16.7789C14.2853 16.6023 14.2427 15.7613 13.7543 15.564C12.4517 15.0275 10.6729 14.2766 10.5359 14.2766C10.0024 14.245 9.89948 15.008 9.84528 15.553C9.79656 16.0463 9.79413 16.4982 9.83676 16.9104C9.87695 17.3452 9.97134 17.7892 10.4049 17.8148C10.5931 17.8142 13.683 16.788 13.7117 16.7789Z" fill="#151B26"/>
<path d="M20.4719 14.8393C20.7173 14.6682 20.6801 14.413 20.6832 14.329C20.6174 13.7054 19.5688 12.1306 19.0438 11.8754C18.8441 11.7829 18.6699 11.7884 18.5213 11.8931C18.3246 12.0265 16.5482 14.5994 16.4429 14.706C16.0976 15.173 16.5915 15.8453 17.1079 15.7095L17.0994 15.7272C17.307 15.6572 20.3111 14.9465 20.4719 14.8393Z" fill="#151B26"/>
<path d="M17.3087 16.9911C16.7722 16.7993 16.2662 17.4843 16.578 17.9539C16.6663 18.1043 18.2886 20.8191 18.4311 20.9202C18.5681 21.0365 18.7398 21.0535 18.9365 20.978C19.4876 20.7576 20.6812 19.2266 20.7586 18.6292C20.7896 18.4173 20.733 18.2523 20.5844 18.1335C20.4644 18.0263 17.3087 16.9911 17.3087 16.9911Z" fill="#151B26"/>
</svg>
