<svg width="30" height="30" viewBox="0 0 30 30" fill="none" xmlns="http://www.w3.org/2000/svg">
<path opacity="0.2" d="M14.9993 29.4233C22.9649 29.4233 29.4223 22.9659 29.4223 15.0002C29.4223 7.03458 22.9649 0.577148 14.9993 0.577148C7.0336 0.577148 0.576172 7.03458 0.576172 15.0002C0.576172 22.9659 7.0336 29.4233 14.9993 29.4233Z" stroke="#151B26"/>
<path d="M14.9999 9.89999C16.6499 9.89999 16.8749 9.89999 17.5499 9.89999C18.1499 9.89999 18.4499 10.05 18.6749 10.125C18.9749 10.275 19.1999 10.35 19.4249 10.575C19.6499 10.8 19.7999 11.025 19.8749 11.325C19.9499 11.55 20.0249 11.85 20.0999 12.45C20.0999 13.125 20.0999 13.275 20.0999 15C20.0999 16.725 20.0999 16.875 20.0999 17.55C20.0999 18.15 19.9499 18.45 19.8749 18.675C19.7249 18.975 19.6499 19.2 19.4249 19.425C19.1999 19.65 18.9749 19.8 18.6749 19.875C18.4499 19.95 18.1499 20.025 17.5499 20.1C16.8749 20.1 16.7249 20.1 14.9999 20.1C13.2749 20.1 13.1249 20.1 12.4499 20.1C11.8499 20.1 11.5499 19.95 11.3249 19.875C11.0249 19.725 10.7999 19.65 10.5749 19.425C10.3499 19.2 10.1999 18.975 10.1249 18.675C10.0499 18.45 9.9749 18.15 9.8999 17.55C9.8999 16.875 9.8999 16.725 9.8999 15C9.8999 13.275 9.8999 13.125 9.8999 12.45C9.8999 11.85 10.0499 11.55 10.1249 11.325C10.2749 11.025 10.3499 10.8 10.5749 10.575C10.7999 10.35 11.0249 10.2 11.3249 10.125C11.5499 10.05 11.8499 9.97499 12.4499 9.89999C13.1249 9.89999 13.3499 9.89999 14.9999 9.89999ZM14.9999 8.77499C13.2749 8.77499 13.1249 8.77499 12.4499 8.77499C11.7749 8.77499 11.3249 8.92499 10.9499 9.07499C10.5749 9.22499 10.1999 9.44999 9.8249 9.82499C9.4499 10.2 9.2999 10.5 9.0749 10.95C8.9249 11.325 8.8499 11.775 8.7749 12.45C8.7749 13.125 8.7749 13.35 8.7749 15C8.7749 16.725 8.7749 16.875 8.7749 17.55C8.7749 18.225 8.9249 18.675 9.0749 19.05C9.2249 19.425 9.4499 19.8 9.8249 20.175C10.1999 20.55 10.4999 20.7 10.9499 20.925C11.3249 21.075 11.7749 21.15 12.4499 21.225C13.1249 21.225 13.3499 21.225 14.9999 21.225C16.6499 21.225 16.8749 21.225 17.5499 21.225C18.2249 21.225 18.6749 21.075 19.0499 20.925C19.4249 20.775 19.7999 20.55 20.1749 20.175C20.5499 19.8 20.6999 19.5 20.9249 19.05C21.0749 18.675 21.1499 18.225 21.2249 17.55C21.2249 16.875 21.2249 16.65 21.2249 15C21.2249 13.35 21.2249 13.125 21.2249 12.45C21.2249 11.775 21.0749 11.325 20.9249 10.95C20.7749 10.575 20.5499 10.2 20.1749 9.82499C19.7999 9.44999 19.4999 9.29999 19.0499 9.07499C18.6749 8.92499 18.2249 8.84999 17.5499 8.77499C16.8749 8.77499 16.7249 8.77499 14.9999 8.77499Z" fill="#151B26"/>
<path d="M14.9999 11.775C13.1999 11.775 11.7749 13.2 11.7749 15C11.7749 16.8 13.1999 18.225 14.9999 18.225C16.7999 18.225 18.2249 16.8 18.2249 15C18.2249 13.2 16.7999 11.775 14.9999 11.775ZM14.9999 17.1C13.8749 17.1 12.8999 16.2 12.8999 15C12.8999 13.875 13.7999 12.9 14.9999 12.9C16.1249 12.9 17.0999 13.8 17.0999 15C17.0999 16.125 16.1249 17.1 14.9999 17.1Z" fill="#151B26"/>
<path d="M18.2999 12.45C18.7141 12.45 19.0499 12.1142 19.0499 11.7C19.0499 11.2858 18.7141 10.95 18.2999 10.95C17.8857 10.95 17.5499 11.2858 17.5499 11.7C17.5499 12.1142 17.8857 12.45 18.2999 12.45Z" fill="#151B26"/>
</svg>
