<svg width="40" height="40" viewBox="0 0 40 40" fill="none" xmlns="http://www.w3.org/2000/svg">
<path fill-rule="evenodd" clip-rule="evenodd" d="M33.3548 16C34.2761 16 34.7073 14.8597 34.0164 14.2502L20.3228 2.16756C19.5668 1.50046 18.4324 1.50046 17.6763 2.16756L3.98272 14.2502C3.29188 14.8597 3.72302 16 4.64434 16H6.9999V28C6.9999 29.1045 7.89533 30 8.9999 30H28.9999C30.1045 30 30.9999 29.1045 30.9999 28V16H33.3548Z" fill="#185155"/>
<path fill-rule="evenodd" clip-rule="evenodd" d="M28.7161 36.2041C30.6789 33.976 36 27.6034 36 24C36 19.5817 32.4183 16 28 16C23.5817 16 20 19.5817 20 24C20 27.6034 25.3211 33.976 27.2839 36.2041C27.6672 36.6393 28.3328 36.6393 28.7161 36.2041ZM28 27C29.6569 27 31 25.6569 31 24C31 22.3431 29.6569 21 28 21C26.3431 21 25 22.3431 25 24C25 25.6569 26.3431 27 28 27Z" fill="#8CCE56"/>
<path fill-rule="evenodd" clip-rule="evenodd" d="M31 16.5816C30.0736 16.2066 29.0609 16.0001 28 16.0001C23.5817 16.0001 20 19.5818 20 24.0001C20 25.6428 21.106 27.8612 22.4955 30H29C30.1046 30 31 29.1046 31 28V16.5816ZM30 24C30 25.1046 29.1046 26 28 26C26.8954 26 26 25.1046 26 24C26 22.8954 26.8954 22 28 22C29.1046 22 30 22.8954 30 24Z" fill="#4EAC6A"/>
<circle cx="28" cy="24" r="2" fill="#FDFEFD"/>
</svg>
