<svg width="30" height="30" viewBox="0 0 30 30" fill="none" xmlns="http://www.w3.org/2000/svg">
<path opacity="0.2" d="M14.9993 29.4233C22.9649 29.4233 29.4223 22.9659 29.4223 15.0002C29.4223 7.03458 22.9649 0.577148 14.9993 0.577148C7.0336 0.577148 0.576172 7.03458 0.576172 15.0002C0.576172 22.9659 7.0336 29.4233 14.9993 29.4233Z" stroke="#151B26"/>
<path d="M12.429 20.4795C17.6522 20.4795 20.5085 16.1522 20.5085 12.3999C20.5085 12.277 20.506 12.1546 20.5005 12.0329C21.0549 11.632 21.5368 11.1318 21.917 10.5624C21.4082 10.7887 20.8606 10.9408 20.2863 11.0096C20.8725 10.6579 21.3226 10.1018 21.5349 9.43887C20.9863 9.76415 20.3786 10.0005 19.7318 10.1281C19.2136 9.57616 18.4758 9.23099 17.6589 9.23099C16.0908 9.23099 14.819 10.5027 14.819 12.0702C14.819 12.2932 14.844 12.5099 14.8927 12.7177C12.5326 12.599 10.4397 11.4691 9.03932 9.75086C8.79555 10.1704 8.65487 10.658 8.65487 11.1782C8.65487 12.1633 9.15621 13.0331 9.9185 13.5418C9.45263 13.5275 9.01503 13.3996 8.63244 13.1868C8.63202 13.1987 8.63202 13.2103 8.63202 13.223C8.63202 14.5983 9.61082 15.7465 10.9103 16.0067C10.6716 16.0716 10.4205 16.1066 10.1615 16.1066C9.97885 16.1066 9.80076 16.0886 9.62775 16.0554C9.98926 17.1837 11.0376 18.0047 12.2805 18.0277C11.3086 18.7895 10.0842 19.2433 8.75357 19.2433C8.52469 19.2433 8.29844 19.2301 8.07617 19.2039C9.33294 20.0094 10.8253 20.4795 12.4291 20.4795" fill="#151B26"/>
</svg>
