<svg width="14" height="14" viewBox="0 0 14 14" fill="none" xmlns="http://www.w3.org/2000/svg">
<path d="M3 12.5C2.20116 12.5 1.54817 11.8756 1.50255 11.0882L1.5 11V6.96126C1.5 6.244 1.80793 5.56346 2.34173 5.09039L2.43826 5.00909L6.06296 2.10934C6.5847 1.69194 7.3156 1.67207 7.85726 2.04971L7.93704 2.10934L11.5617 5.00909C12.1218 5.45717 12.4609 6.12275 12.4968 6.8351L12.5 6.96126V11C12.5 11.7989 11.8755 12.4518 11.0881 12.4975L11 12.5H3ZM7.31235 2.89021C7.14634 2.7574 6.9168 2.74533 6.73925 2.85399L6.68765 2.89021L3.06296 5.78996C2.73255 6.05429 2.53035 6.44477 2.50315 6.86404L2.5 6.96126V11C2.5 11.2564 2.69302 11.4678 2.94169 11.4967L3 11.5L4.5 11.4996V8.50001C4.5 7.70117 5.12446 7.04818 5.91186 7.00256L6 7.00001H8C8.79884 7.00001 9.45183 7.62447 9.49745 8.41188L9.5 8.50001V11.4996L11 11.5C11.2564 11.5 11.4678 11.307 11.4966 11.0583L11.5 11V6.96126C11.5 6.53814 11.3214 6.13631 11.011 5.85315L10.937 5.78996L7.31235 2.89021ZM8 8.00001H6C5.74358 8.00001 5.53225 8.19303 5.50336 8.4417L5.5 8.50001V11.4996H8.5V8.50001C8.5 8.2436 8.30698 8.03226 8.05831 8.00338L8 8.00001Z" fill="#151B26"/>
</svg>
