<svg width="39" height="31" viewBox="0 0 39 31" fill="none" xmlns="http://www.w3.org/2000/svg">
<path fill-rule="evenodd" clip-rule="evenodd" d="M38.3136 3.35381L38.3091 3.35582L38.274 3.37171C38.2409 3.38694 38.1887 3.41139 38.1203 3.44512C37.9831 3.51265 37.7813 3.61693 37.5353 3.75826C37.0412 4.04214 36.3804 4.46902 35.7113 5.0395C34.3536 6.19696 33.0891 7.83181 32.9093 9.95773C32.8114 11.1158 32.9342 12.5024 33.0801 14.1406C33.222 15.7327 33.3799 17.5197 33.289 19.3036C33.1976 21.0985 32.8531 22.9506 31.9544 24.6812C31.0494 26.4242 29.6191 27.9725 27.4653 29.2104C23.1303 31.702 18.7051 31.1945 15.1266 30.0735C13.3367 29.5129 11.7251 28.7884 10.4185 28.1859C10.2957 28.1293 10.1762 28.074 10.0599 28.0202C9.54862 27.7837 9.09874 27.5757 8.6973 27.4041C8.19492 27.1894 7.8431 27.0652 7.60705 27.0164C6.42461 26.772 4.91108 26.9164 3.61456 27.1585C2.98208 27.2765 2.43093 27.4119 2.03881 27.5176C1.84317 27.5703 1.6882 27.6153 1.58374 27.6467C1.53154 27.6623 1.49203 27.6745 1.46645 27.6826L1.43871 27.6913L1.43299 27.6932C0.931834 27.8561 0.390171 27.6269 0.137128 27.1442C-0.115964 26.6615 -0.0110049 26.0584 0.388327 25.7009C0.388126 25.7011 0.388327 25.7009 1.10554 26.5843L0.388327 25.7009L1.49856 24.7081C2.20673 24.0753 3.22128 23.1693 4.44694 22.0768C6.89818 19.8919 10.1943 16.9602 13.573 13.9738C16.9512 10.9879 20.4144 7.94522 23.1992 5.53914C25.9442 3.16732 28.1169 1.33685 28.8519 0.851274C29.7416 0.263525 30.8187 0.0530235 31.8275 0.00916052C32.8509 -0.0353369 33.9103 0.0877147 34.847 0.26045C35.7886 0.434104 36.6382 0.664066 37.2507 0.849674C37.5579 0.942776 37.8079 1.02546 37.9828 1.08552C38.0704 1.11557 38.1393 1.14001 38.1873 1.15733L38.2436 1.1778L38.2595 1.18368L38.2659 1.18608L37.8945 2.27954C38.267 1.18648 38.2661 1.18617 38.2659 1.18608C38.6969 1.34805 38.9894 1.77267 38.9997 2.25331C39.01 2.73332 38.738 3.1704 38.3153 3.35308L38.3136 3.35381ZM31.919 2.32903C31.0956 2.36483 30.4572 2.53385 30.0293 2.81657C29.5353 3.14293 28.002 4.41387 25.831 6.27564V12.4681C26.3173 12.9805 26.7179 13.5918 26.9615 14.3206C27.5871 16.1931 27.6797 18.1222 26.8654 19.8772C26.0533 21.6274 24.401 23.0703 21.8029 24.1108C20.2639 24.7272 18.1828 24.8679 15.7809 24.9587C15.3452 24.9752 14.8963 24.99 14.4345 25.0052L14.4334 25.0053C12.9255 25.055 11.2797 25.1092 9.50184 25.2412L9.53073 25.2535C9.96399 25.4387 10.4501 25.6636 10.9628 25.9007L11.3075 26.06C12.6049 26.6582 14.1096 27.332 15.7586 27.8486C19.0578 28.882 22.8004 29.2447 26.4038 27.1737C28.2191 26.1303 29.3283 24.8888 30.0133 23.5696C30.7047 22.2381 31.0009 20.7557 31.0812 19.1796C31.162 17.5927 31.0227 15.9724 30.8787 14.3569L30.8673 14.2285C30.7309 12.6994 30.5907 11.1278 30.707 9.7523C30.9623 6.734 32.741 4.58111 34.3177 3.23688C34.5615 3.02908 34.8035 2.83787 35.0385 2.66303C34.8523 2.62238 34.6604 2.58343 34.4645 2.54731C33.6171 2.39103 32.7277 2.29387 31.919 2.32903ZM24.4491 11.3641V7.46591C23.503 8.28405 22.4807 9.17361 21.4116 10.108C21.8097 10.2139 22.2481 10.3485 22.6995 10.5185C23.2598 10.7295 23.867 11.0051 24.4491 11.3641ZM14.9968 15.7502C16.6982 14.2463 18.4198 12.7293 20.0644 11.2874C20.1288 11.2993 20.1972 11.3125 20.2693 11.3271C20.7925 11.4326 21.4977 11.6076 22.2331 11.8845C23.7515 12.4563 25.1828 13.3803 25.6575 14.8011C26.2013 16.4286 26.2292 17.9354 25.6232 19.2415C25.015 20.5522 23.7062 21.7954 21.3105 22.7549C20.0232 23.2705 18.1805 23.4159 15.7312 23.5085C15.305 23.5246 14.8626 23.5392 14.4049 23.5542C12.2764 23.6243 9.8158 23.7052 7.10105 24.005C6.58138 24.0624 5.93495 24.2097 5.2616 24.3963L5.87771 23.847C8.32756 21.6633 11.6211 18.7338 14.9968 15.7502Z" fill="#6DB353"/>
</svg>
